<svg width="50" height="50" viewBox="0 0 50 50" fill="none" xmlns="http://www.w3.org/2000/svg">
<rect width="50" height="50" rx="25" fill="#00CCF2"/>
<mask id="path-2-inside-1_235_22" fill="white">
<path d="M32.4199 21.0892C32.1562 21.0013 31.8926 20.9183 31.6289 20.8402C31.6729 20.6595 31.7119 20.4789 31.751 20.2982C32.3516 17.3881 31.9561 15.0492 30.623 14.2777C29.3389 13.5404 27.2441 14.307 25.125 16.1527C24.915 16.3334 24.71 16.5238 24.5146 16.7142C24.3828 16.5873 24.2461 16.4603 24.1094 16.3383C21.8877 14.3656 19.6611 13.5355 18.3281 14.3119C17.0488 15.0541 16.668 17.2562 17.2051 20.0101C17.2588 20.2836 17.3174 20.5521 17.3857 20.8256C17.0732 20.9135 16.7656 21.0111 16.4775 21.1136C13.8701 22.017 12 23.4427 12 24.9174C12 26.4408 13.9922 27.9691 16.7021 28.8968C16.9219 28.9701 17.1416 29.0433 17.3662 29.1068C17.293 29.3998 17.2295 29.6879 17.1709 29.9857C16.6582 32.6957 17.0586 34.8441 18.3379 35.5814C19.6562 36.3431 21.873 35.5619 24.0312 33.6722C24.2021 33.5209 24.373 33.3646 24.5439 33.1986C24.7588 33.4086 24.9834 33.6088 25.208 33.8041C27.2979 35.601 29.3633 36.3285 30.6377 35.5912C31.9561 34.8295 32.3857 32.5199 31.8291 29.7074C31.7852 29.4926 31.7363 29.2728 31.6826 29.0482C31.8389 29.0043 31.9902 28.9554 32.1416 28.9066C34.959 27.974 37 26.4652 37 24.9174C37 23.4379 35.0762 22.0023 32.4199 21.0892ZM25.8135 16.9437C27.6299 15.3617 29.3242 14.7416 30.0957 15.1859C30.9209 15.6595 31.2383 17.5736 30.7207 20.0883C30.6865 20.2543 30.6523 20.4154 30.6084 20.5765C29.5244 20.3324 28.4258 20.1566 27.3223 20.059C26.6875 19.1508 25.9941 18.2816 25.2422 17.4662C25.4326 17.2855 25.6182 17.1146 25.8135 16.9437ZM20.1641 27.4515C20.4131 27.8763 20.667 28.3011 20.9355 28.7162C20.1738 28.6332 19.417 28.5111 18.6699 28.35C18.8848 27.6468 19.1533 26.9193 19.4658 26.1771C19.6904 26.6068 19.9199 27.0316 20.1641 27.4515ZM18.6846 21.5775C19.3877 21.4213 20.1348 21.2943 20.9111 21.1967C20.6523 21.6019 20.3984 22.017 20.1592 22.4369C19.9199 22.8519 19.6855 23.2767 19.4658 23.7064C19.1582 22.9789 18.8994 22.266 18.6846 21.5775ZM20.0225 24.9418C20.3447 24.2679 20.6963 23.6088 21.0674 22.9593C21.4385 22.3099 21.8389 21.6801 22.2588 21.0599C22.9912 21.0062 23.7383 20.9769 24.5 20.9769C25.2617 20.9769 26.0137 21.0062 26.7412 21.0599C27.1562 21.6752 27.5518 22.3051 27.9277 22.9496C28.3037 23.5941 28.6553 24.2533 28.9873 24.9222C28.6602 25.5961 28.3086 26.2601 27.9326 26.9144C27.5615 27.5638 27.166 28.1937 26.751 28.8187C26.0234 28.8724 25.2666 28.8968 24.5 28.8968C23.7334 28.8968 22.9912 28.8724 22.2734 28.8285C21.8486 28.2084 21.4482 27.5736 21.0723 26.9242C20.6963 26.2748 20.3496 25.6156 20.0225 24.9418ZM28.8408 27.4418C29.0898 27.0121 29.3242 26.5775 29.5537 26.1381C29.8662 26.8461 30.1396 27.5638 30.3789 28.3011C29.6221 28.472 28.8555 28.6039 28.084 28.6918C28.3477 28.2816 28.5967 27.8617 28.8408 27.4418ZM29.5439 23.7064C29.3145 23.2767 29.0801 22.847 28.8359 22.4271C28.5967 22.0121 28.3477 21.6019 28.0889 21.1967C28.875 21.2943 29.627 21.4261 30.3301 21.5873C30.1055 22.3099 29.8418 23.0131 29.5439 23.7064ZM24.5098 18.2133C25.0225 18.7699 25.5059 19.3558 25.9551 19.9613C24.9883 19.9174 24.0166 19.9174 23.0498 19.9613C23.5283 19.3314 24.0215 18.7455 24.5098 18.2133ZM18.8457 15.2201C19.666 14.7416 21.4873 15.4252 23.4062 17.1244C23.5283 17.2318 23.6504 17.349 23.7773 17.4662C23.0205 18.2816 22.3223 19.1508 21.6826 20.059C20.5791 20.1566 19.4854 20.3275 18.4014 20.5668C18.3379 20.3177 18.2842 20.0638 18.2305 19.8099C17.7715 17.4467 18.0742 15.6644 18.8457 15.2201ZM17.6494 28.0912C17.4443 28.0326 17.2441 27.9691 17.0439 27.9008C16.0039 27.5736 14.8223 27.056 13.9678 26.3773C13.4746 26.0355 13.1426 25.5082 13.0498 24.9174C13.0498 24.0238 14.5928 22.8812 16.8193 22.1049C17.0977 22.0072 17.3809 21.9193 17.6641 21.8363C17.9961 22.8959 18.3965 23.9359 18.8604 24.9418C18.3916 25.9623 17.9863 27.017 17.6494 28.0912ZM23.3428 32.8763C22.5371 33.6136 21.6045 34.1996 20.5889 34.6C20.0469 34.8588 19.4219 34.8832 18.8652 34.6635C18.0889 34.2142 17.7666 32.4906 18.2061 30.1713C18.2598 29.8978 18.3184 29.6244 18.3867 29.3558C19.4805 29.5902 20.584 29.7513 21.7021 29.8343C22.3467 30.7474 23.0547 31.6215 23.8115 32.4418C23.6553 32.5931 23.499 32.7396 23.3428 32.8763ZM24.5391 31.6898C24.041 31.1527 23.543 30.557 23.0596 29.9174C23.5283 29.9369 24.0117 29.9467 24.5 29.9467C25.0029 29.9467 25.4961 29.9369 25.9844 29.9125C25.5352 30.5326 25.0518 31.1234 24.5391 31.6898ZM30.9209 33.1547C30.877 33.7504 30.584 34.307 30.1152 34.683C29.3389 35.1322 27.6836 34.5463 25.8965 33.0131C25.6914 32.8373 25.4863 32.6468 25.2764 32.4515C26.0234 31.6263 26.7119 30.7523 27.3369 29.8343C28.4551 29.7416 29.5684 29.5707 30.667 29.3217C30.7158 29.5218 30.7598 29.722 30.7988 29.9174C31.0381 30.972 31.0771 32.0707 30.9209 33.1547ZM31.8096 27.9056C31.6729 27.9496 31.5361 27.9935 31.3945 28.0326C31.0527 26.9681 30.6328 25.9281 30.1494 24.9174C30.6182 23.9213 31.0137 22.8959 31.3457 21.8461C31.5996 21.9193 31.8438 21.9974 32.0781 22.0756C34.3535 22.8568 35.9502 24.0189 35.9502 24.9076C35.9502 25.8646 34.2461 27.1 31.8096 27.9056ZM24.5 27.1732C25.7354 27.1732 26.7363 26.1722 26.7363 24.9369C26.7363 23.7015 25.7354 22.7006 24.5 22.7006C23.2646 22.7006 22.2637 23.7015 22.2637 24.9369C22.2637 26.1722 23.2646 27.1732 24.5 27.1732Z"/>
</mask>
<path d="M32.4199 21.0892C32.1562 21.0013 31.8926 20.9183 31.6289 20.8402C31.6729 20.6595 31.7119 20.4789 31.751 20.2982C32.3516 17.3881 31.9561 15.0492 30.623 14.2777C29.3389 13.5404 27.2441 14.307 25.125 16.1527C24.915 16.3334 24.71 16.5238 24.5146 16.7142C24.3828 16.5873 24.2461 16.4603 24.1094 16.3383C21.8877 14.3656 19.6611 13.5355 18.3281 14.3119C17.0488 15.0541 16.668 17.2562 17.2051 20.0101C17.2588 20.2836 17.3174 20.5521 17.3857 20.8256C17.0732 20.9135 16.7656 21.0111 16.4775 21.1136C13.8701 22.017 12 23.4427 12 24.9174C12 26.4408 13.9922 27.9691 16.7021 28.8968C16.9219 28.9701 17.1416 29.0433 17.3662 29.1068C17.293 29.3998 17.2295 29.6879 17.1709 29.9857C16.6582 32.6957 17.0586 34.8441 18.3379 35.5814C19.6562 36.3431 21.873 35.5619 24.0312 33.6722C24.2021 33.5209 24.373 33.3646 24.5439 33.1986C24.7588 33.4086 24.9834 33.6088 25.208 33.8041C27.2979 35.601 29.3633 36.3285 30.6377 35.5912C31.9561 34.8295 32.3857 32.5199 31.8291 29.7074C31.7852 29.4926 31.7363 29.2728 31.6826 29.0482C31.8389 29.0043 31.9902 28.9554 32.1416 28.9066C34.959 27.974 37 26.4652 37 24.9174C37 23.4379 35.0762 22.0023 32.4199 21.0892ZM25.8135 16.9437C27.6299 15.3617 29.3242 14.7416 30.0957 15.1859C30.9209 15.6595 31.2383 17.5736 30.7207 20.0883C30.6865 20.2543 30.6523 20.4154 30.6084 20.5765C29.5244 20.3324 28.4258 20.1566 27.3223 20.059C26.6875 19.1508 25.9941 18.2816 25.2422 17.4662C25.4326 17.2855 25.6182 17.1146 25.8135 16.9437ZM20.1641 27.4515C20.4131 27.8763 20.667 28.3011 20.9355 28.7162C20.1738 28.6332 19.417 28.5111 18.6699 28.35C18.8848 27.6468 19.1533 26.9193 19.4658 26.1771C19.6904 26.6068 19.9199 27.0316 20.1641 27.4515ZM18.6846 21.5775C19.3877 21.4213 20.1348 21.2943 20.9111 21.1967C20.6523 21.6019 20.3984 22.017 20.1592 22.4369C19.9199 22.8519 19.6855 23.2767 19.4658 23.7064C19.1582 22.9789 18.8994 22.266 18.6846 21.5775ZM20.0225 24.9418C20.3447 24.2679 20.6963 23.6088 21.0674 22.9593C21.4385 22.3099 21.8389 21.6801 22.2588 21.0599C22.9912 21.0062 23.7383 20.9769 24.5 20.9769C25.2617 20.9769 26.0137 21.0062 26.7412 21.0599C27.1562 21.6752 27.5518 22.3051 27.9277 22.9496C28.3037 23.5941 28.6553 24.2533 28.9873 24.9222C28.6602 25.5961 28.3086 26.2601 27.9326 26.9144C27.5615 27.5638 27.166 28.1937 26.751 28.8187C26.0234 28.8724 25.2666 28.8968 24.5 28.8968C23.7334 28.8968 22.9912 28.8724 22.2734 28.8285C21.8486 28.2084 21.4482 27.5736 21.0723 26.9242C20.6963 26.2748 20.3496 25.6156 20.0225 24.9418ZM28.8408 27.4418C29.0898 27.0121 29.3242 26.5775 29.5537 26.1381C29.8662 26.8461 30.1396 27.5638 30.3789 28.3011C29.6221 28.472 28.8555 28.6039 28.084 28.6918C28.3477 28.2816 28.5967 27.8617 28.8408 27.4418ZM29.5439 23.7064C29.3145 23.2767 29.0801 22.847 28.8359 22.4271C28.5967 22.0121 28.3477 21.6019 28.0889 21.1967C28.875 21.2943 29.627 21.4261 30.3301 21.5873C30.1055 22.3099 29.8418 23.0131 29.5439 23.7064ZM24.5098 18.2133C25.0225 18.7699 25.5059 19.3558 25.9551 19.9613C24.9883 19.9174 24.0166 19.9174 23.0498 19.9613C23.5283 19.3314 24.0215 18.7455 24.5098 18.2133ZM18.8457 15.2201C19.666 14.7416 21.4873 15.4252 23.4062 17.1244C23.5283 17.2318 23.6504 17.349 23.7773 17.4662C23.0205 18.2816 22.3223 19.1508 21.6826 20.059C20.5791 20.1566 19.4854 20.3275 18.4014 20.5668C18.3379 20.3177 18.2842 20.0638 18.2305 19.8099C17.7715 17.4467 18.0742 15.6644 18.8457 15.2201ZM17.6494 28.0912C17.4443 28.0326 17.2441 27.9691 17.0439 27.9008C16.0039 27.5736 14.8223 27.056 13.9678 26.3773C13.4746 26.0355 13.1426 25.5082 13.0498 24.9174C13.0498 24.0238 14.5928 22.8812 16.8193 22.1049C17.0977 22.0072 17.3809 21.9193 17.6641 21.8363C17.9961 22.8959 18.3965 23.9359 18.8604 24.9418C18.3916 25.9623 17.9863 27.017 17.6494 28.0912ZM23.3428 32.8763C22.5371 33.6136 21.6045 34.1996 20.5889 34.6C20.0469 34.8588 19.4219 34.8832 18.8652 34.6635C18.0889 34.2142 17.7666 32.4906 18.2061 30.1713C18.2598 29.8978 18.3184 29.6244 18.3867 29.3558C19.4805 29.5902 20.584 29.7513 21.7021 29.8343C22.3467 30.7474 23.0547 31.6215 23.8115 32.4418C23.6553 32.5931 23.499 32.7396 23.3428 32.8763ZM24.5391 31.6898C24.041 31.1527 23.543 30.557 23.0596 29.9174C23.5283 29.9369 24.0117 29.9467 24.5 29.9467C25.0029 29.9467 25.4961 29.9369 25.9844 29.9125C25.5352 30.5326 25.0518 31.1234 24.5391 31.6898ZM30.9209 33.1547C30.877 33.7504 30.584 34.307 30.1152 34.683C29.3389 35.1322 27.6836 34.5463 25.8965 33.0131C25.6914 32.8373 25.4863 32.6468 25.2764 32.4515C26.0234 31.6263 26.7119 30.7523 27.3369 29.8343C28.4551 29.7416 29.5684 29.5707 30.667 29.3217C30.7158 29.5218 30.7598 29.722 30.7988 29.9174C31.0381 30.972 31.0771 32.0707 30.9209 33.1547ZM31.8096 27.9056C31.6729 27.9496 31.5361 27.9935 31.3945 28.0326C31.0527 26.9681 30.6328 25.9281 30.1494 24.9174C30.6182 23.9213 31.0137 22.8959 31.3457 21.8461C31.5996 21.9193 31.8438 21.9974 32.0781 22.0756C34.3535 22.8568 35.9502 24.0189 35.9502 24.9076C35.9502 25.8646 34.2461 27.1 31.8096 27.9056ZM24.5 27.1732C25.7354 27.1732 26.7363 26.1722 26.7363 24.9369C26.7363 23.7015 25.7354 22.7006 24.5 22.7006C23.2646 22.7006 22.2637 23.7015 22.2637 24.9369C22.2637 26.1722 23.2646 27.1732 24.5 27.1732Z" fill="white" stroke="white" stroke-width="2" mask="url(#path-2-inside-1_235_22)"/>
</svg>
