<svg width="50" height="50" viewBox="0 0 50 50" fill="none" xmlns="http://www.w3.org/2000/svg">
<rect width="50" height="50" rx="25" fill="#5865F2"/>
<g clip-path="url(#clip0_235_24)">
<path d="M32.6361 18.3964C31.1907 17.7347 29.6648 17.2652 28.0974 17C27.8829 17.3834 27.6888 17.7779 27.5159 18.1818C25.8463 17.9303 24.1484 17.9303 22.4788 18.1818C22.3059 17.778 22.1118 17.3835 21.8974 17C20.329 17.2674 18.8021 17.738 17.3552 18.3999C14.4828 22.6497 13.7041 26.7939 14.0934 30.8793C15.7756 32.1222 17.6584 33.0674 19.66 33.6739C20.1108 33.0677 20.5096 32.4246 20.8523 31.7515C20.2014 31.5083 19.5731 31.2084 18.9748 30.8551C19.1323 30.7409 19.2863 30.6232 19.4351 30.509C21.176 31.3278 23.0762 31.7523 25 31.7523C26.9238 31.7523 28.8239 31.3278 30.5649 30.509C30.7154 30.6319 30.8694 30.7496 31.0252 30.8551C30.4257 31.209 29.7963 31.5095 29.1442 31.7532C29.4865 32.426 29.8854 33.0686 30.3365 33.6739C32.3398 33.0699 34.2241 32.1251 35.9065 30.8811C36.3634 26.1433 35.1261 22.0371 32.6361 18.3964ZM21.3454 28.3668C20.2605 28.3668 19.3641 27.3823 19.3641 26.171C19.3641 24.9597 20.2293 23.9665 21.342 23.9665C22.4546 23.9665 23.344 24.9597 23.325 26.171C23.3059 27.3823 22.4511 28.3668 21.3454 28.3668ZM28.6545 28.3668C27.5679 28.3668 26.675 27.3823 26.675 26.171C26.675 24.9597 27.5402 23.9665 28.6545 23.9665C29.7689 23.9665 30.6514 24.9597 30.6324 26.171C30.6133 27.3823 29.7602 28.3668 28.6545 28.3668Z" fill="white"/>
</g>
<defs>
<clipPath id="clip0_235_24">
<rect width="22" height="16.6739" fill="white" transform="translate(14 17)"/>
</clipPath>
</defs>
</svg>
