<svg width="50" height="50" viewBox="0 0 50 50" fill="none" xmlns="http://www.w3.org/2000/svg">
<path d="M0 25C0 11.1929 11.1929 0 25 0C38.8071 0 50 11.1929 50 25C50 38.8071 38.8071 50 25 50C11.1929 50 0 38.8071 0 25Z" fill="#CD3333"/>
<path d="M34.8333 19.2617C34.7458 18.9089 34.3044 18.7894 34.0473 19.0464L31.1426 21.9511L28.4911 21.5093L28.0493 18.8577L30.954 15.9531C31.2126 15.6945 31.088 15.2538 30.7329 15.1656C28.8821 14.707 26.8442 15.2011 25.3977 16.6472C23.8493 18.1956 23.4231 20.4402 24.0677 22.3972L15.7321 30.7327C14.756 31.7089 14.756 33.2917 15.7321 34.2679C16.7083 35.244 18.2911 35.244 19.2673 34.2679L27.5958 25.9394C29.5536 26.5921 31.7938 26.1612 33.3524 24.6027C34.8004 23.1546 35.2938 21.1136 34.8333 19.2617ZM17.5001 33.4374C16.9825 33.4374 16.5626 33.0175 16.5626 32.4999C16.5626 31.9819 16.9825 31.5624 17.5001 31.5624C18.0177 31.5624 18.4376 31.9819 18.4376 32.4999C18.4376 33.0175 18.0177 33.4374 17.5001 33.4374Z" fill="white"/>
</svg>
